<?xml version="1.0" encoding="UTF-8"?>
<svg id="Layer_2" data-name="Layer 2" xmlns="http://www.w3.org/2000/svg" viewBox="0 0 888.21 349.99">
  <defs>
    <style>
      .cls-1 {
        fill: #e00809;
      }
    </style>
  </defs>
  <g id="Layer_1-2" data-name="Layer 1">
    <g>
      <path class="cls-1" d="M669,102.17v-8.14c-2.22-1.08-4.34.08-6.08.02-18.82-.64-37.89-.91-56.79-.57-2.68.04-5.43,1.64-7.6-.77v-15.24c-1.74-1.76-3.83-3.26-5.82-4.69-.96-.69-7.36-5.03-7.86-4.51v23.39c0,3.44-3.18,1.87-4.97,1.82-39.95-1.13-83.36-1.13-123.06-.48-13.77.22-28.04-1.2-41.59-.57-3.91.18-6.98,2.94-5.9-3.8,1.25-7.78,7.09-12.01,12.77-16.66,3.97-3.25,8.28-6.11,12.29-9.3.48-1.42-4.54-8.78-5.64-10.51-1.28-2-.64-4.16-4.49-2.2-2.78,1.41-9.99,7.16-12.68,9.4-1.59,1.32-8.95,9.16-9.59,9.35-2.9.85-6.12-5.01-8.03-7.02-1.91-2.01-7.1-8-9.87-6.92-.94.36-7.66,10.1-9.09,11.67,0,1.29,8.21,7.94,9.76,9.7,1.9,2.15,6.7,8.96,7.36,11.56.41,1.59.25,3.15.25,4.75-.38.38-9.11-.27-10.81-.03-8.86,1.24-14.23,1.07-23.08,1.06-77.49-.1-155.25.04-232.46,0-17.57-.01-36.26-.79-53.68,0-1.23.05-6.34.32-6.85,1.04-.39,1.39-.75,8.44,1.09,8.44h61.53l.79.79v11.56c0,.29-1.11,1.19-1.73,1.2-2.08.01-7.02-2.06-9.64-2.46-14.67-2.24-44.83-.08-42.73,21.16.82,8.32,8.05,17,15.71,20.03,14.45,5.72,35.71-9.58,46.12-3.52,3.81,2.23,3.23,6.83.41,9.57-5.41,5.25-20.06,7.96-27.36,7.38-8.68-.69-20.54-9.66-27.34-8.97-2.5.25-5.55,1.84-6,4.51-1.96,11.41,12.42,14.27,20.75,15.47,2.55.37,5.94-.43,8.43,1.03,2.76,1.62,7.35,12.29,10.76,15.52,4.44,4.22,11.8,4.68,17.49,3.31,2.11-.51,2.3-1.5,1.55-3.42-.4-1.04-5.9-10.07-6.43-10.39-1.41-.86-2.97.25-4.41.22-1.83-.04-8.75-3.06-8.76-4.95,0-.81.31-.89.93-1.2,2.18-1.09,7.25-1.72,10.14-3.01,10.34-4.6,20.14-14.89,14.29-26.89-5.26-10.79-20.53-12.78-31.12-10.42-5.83,1.3-29.39,13.05-28.95.02.14-3.99,2.8-6.08,5.99-7.72,13.12-6.78,32.34-5.63,46.1-1.23,1.73.55,3.33,2.47,5.3,1.62.87-.63.48-6.41.48-7.92.04-6.02-.73-13.47-.02-19.48.09-.76.07-1.35.82-1.81h20.51l.79.79v19.44c0,.92-2.65,2.71-3.03,3.8-.39,1.11-.84,4.07.21,4.91,1.77.42,9.54-3.46,12-4.26,7.82-2.54,15.97-3.77,24.23-3.16,6.96.52,13.19,5.76,11.81,13.17-2.24.5-3.41-1.14-5.26-1.84-15.83-5.98-35.11-1.19-46.02,11.81-13.8,16.46,3.92,30.89,20.58,32,6.99.46,15.83-1.18,22.27-3.89,1.36-.58,5.93-3.41,6.61-3.41,1.48.03,1.51,2.49,2.9,3.4.65.42,10,3.94,10.51,3.71.69-.3,1.07-1.34,1.06-2.08-.59-15.96,1.31-32.96-1.85-48.66-3.38-16.78-21.52-16.59-35.21-14.65-2.41.34-6.23,1.94-8.53,2.04-.6.03-1.77-.21-1.77-.77v-11.04c0-.17.7-.79.53-1.31h195.9l.79.79v12.35c-3.49.35-7.05-1.44-10.38-1.98-10.78-1.75-28.33-.87-37.21,6.19-14.29,11.38-1.71,33.07,13.27,36.13,11.66,2.37,26.14-6.99,37.73-6.17,6.09.43,10.41,5.16,5.75,10.46-3.87,4.41-19.37,8.48-25.14,8.39-10.25-.15-22.84-10.32-30.52-9.36-7.35.93-7.01,10.24-2.15,14.14,6.62,5.31,17.35,5.27,25.29,6.79,7.57,7.22,8.64,19.4,21.51,19.53,1.7.02,8.68-.46,9.15-1.97.35-1.11-6-12.05-6.77-12.53-1.41-.87-3.36.36-4.94.26-1.82-.12-9.62-3.72-8.21-5.76,11.1-2.4,26.73-9.63,26.86-22.87.17-16.43-19.69-20.88-32.77-17.98-6.8,1.51-20.57,9.43-26.88,5.02-3.23-2.25-2.32-7.57.18-10.16,9.87-10.18,37.45-7.44,49.85-3.57.96.3,5.89,3.06,5.89.94v-27.85l.79-.79h12.89v54.39c-.65,2.33-.34,4.51-1.03,6.85-1.3,4.38-4.85,7.31-7.17,11.02l3.12,4.81,11.64,11.21c.75-.48.75-1.02.83-1.81.47-4.44-.97-9.64-.48-14.14l.79-.78,2.24-.02c1.52,5.53-2.44,11.09-.51,16.53.4.29,1.29.36,1.78.25.93-.23,10.82-12.69,12.71-14.23,1.09-2.19-1.48-3.22-2.58-4.76-5.51-7.67-6.12-18.27-5.06-27.56.5-4.31,6.45-12.19,9.48-15.61,5.82-6.58,13.81-12.64,23.18-10.68,8.24,1.73,5.06,12.85-.08,16.81-6.46,4.97-13.42,2.76-20.91,3.01-.72,2.26-5.27,8.64-4.73,10.57l28.85,34.3c.58.43.97.25,1.55-.01.85-.38,8.21-6.29,8.38-6.95l-16.81-22.48c.13-1.81,2.7-1.19,4.15-1.68,9.05-3,17.82-8.43,16.91-19.35-.65-7.87-6.77-13.4-13.72-16.23-12.6-5.14-24.7.46-35.44,7.03-.13.06-.79-1.73-.79-1.83v-18.4c0-.09.54-1.27.88-1.36l174.25,1.1.65,61.1c6.11,20.99,31.94,19.16,43.21,3.49,1.22-1.69,5.19-7.32,3.14-8.83-2.17-1.6-7.77-4.59-10.37-5.92-1.26-.65-2.53-1.58-4.03-1.49-.52,5.03-.35,10.18-2.07,15-3.69,10.31-15.22,11.88-16.36-.53-1.74-19.02,1.38-40.66-.01-59.96l.51-2.12,70-1.53ZM201.48,158.93c-9.65,7.89-29.59,14.66-41.55,9.97-5.7-2.24-5.21-5.77-2.34-10.2,4.68-7.22,14.72-13.09,23.24-14.09,6.2-.73,13.29.43,19.05,2.77,7.86,3.19,8,6.32,1.6,11.55Z"/>
      <path class="cls-1" d="M875.15,174.96h-213.25c-.18,0-.8-.7-1.32-.53v-60.17c0-.18-.69-.8-.52-1.32h-12.36l-.79.79v59.39c1.2,1.46,12.09,8.14,12.88,8.14h11.31c.58,2.36,1.31,7.45-.55,9.17-1.28,1.18-4.63,1.51-4.18,3.97,11.87-2.11,30.21-.41,27.82,15.98-.99,6.85-10.22,13.15-16.26,15.28-2.75.96-10.84,1.88-12.08,2.65-.82.5-1.17,2.58-1.89,3.38l.57,1.07h36.28c2.04,0,5.99-8.44,5.52-8.93-1.74.23-3.21,1.22-4.91,1.65-1.58.41-6.13,1.5-7.44,1.5h-8.16c1.07-3.02,5.19-4.32,7.62-6.31,7.81-6.41,13.46-14.49,8.55-24.81-2.1-4.41-9.62-8.29-14.32-8.29h-7.89c-1.08-.81-.93-2.67-.82-3.97.04-.49-.04-.99.11-1.47l.71-.87h45.75l.79.79v11.56c-22.53,17.32-8.41,45.19,19.56,38.47,13.24-3.18,24.24-21.03,16.64-33.65-5.91-9.83-18.36-12.25-28.84-9.28.43-2.49-1.49-8.25,2.34-8.34.76-.02,1.69.47,2.64.48,10.7.11,21.42.03,32.12,0,3.04-.01,5.96-1.04,9.21.2.73.5.71,6.71.39,7.81-.62,2.11-5.05,2.45-5.15,5.1,10.7-2.1,29.9-.55,28.34,14.4-.83,7.93-8.91,14.08-15.88,16.71-3.26,1.23-10.62,1.74-12.44,2.81-1.05.62-1.49,2.2-2.05,3.22l.71,1.22h36.82c1.37-.64,5.07-7.82,4.46-8.4-6.56,1.27-13.19,3.52-19.98,2.35.03-1.43,7.64-6.18,9.22-7.6,13.46-12.05,11.35-29.16-7.97-31.47-5-.6-10.38,1.91-8.14-6.06,2.27-1.45,4.47-.31,6.61-.29,10.56.1,21.05.12,31.55.52,3.59.14,7.22-.14,10.8-.02v12.35c0,.35-3.65,4.08-4.48,5.5-4.12,7.01-4.64,17.61-1.4,25.08,6.2,14.31,35.53,9.34,39.3-4.55,4.07-15.01-16.4-19.82-26.94-14.3-2.57,1.35-4.23,3.63-6.47,5.35-.24-4.58,1.63-13.09,4.8-16.48,3.62-3.87,17.56-1.94,20.16,3.27l8.16-4.4c-6.45-6.8-18.18-8.02-26.29-3.41v-8.41c2.96.41,5.82-.43,8.65-.55,6.51-.28,15.02,1.45,20.95.41.43-.08,1.33-.22,1.45-.74l-.02-5.95ZM743.12,194.69c9.56,2.75,14.71,10.5,13.64,20.4-2.39,22.02-37.38,12.18-33.36-9.68.61-3.31,5.24-10.68,8.55-11.42,2.89-.66,8.29-.13,11.17.7ZM846.11,209.79c7.07-.84,17.9,1.87,18.03,10.63.15,9.5-12.2,8.79-18.27,5.61-3.69-1.93-8.53-7.14-8.57-11.47-.02-2.82,6.42-4.49,8.81-4.77Z"/>
      <path class="cls-1" d="M418.74,80.82l.2-1.51,19.04-14.34c2.17-3.27-.47-3.96-1.42-5.5-1.55-2.49-6.89-14.24-9.71-14.31l-23.41,15.23c-5.14-17.21-2.65-34.4,9.96-47.57,18.88-19.71,51.8-16.13,66.3,6.83,22.88,36.25-11.82,83.09-52.58,65.68-3.05-1.3-5.48-3-8.36-4.51Z"/>
      <path class="cls-1" d="M242.76,116.1c1.47.48,1.39,6.97,1.32,8.41,4.22-1.74,7.51-5.4,11.63-7.55,14.12-7.38,30.84-3.87,40.12,9.18,11.06,15.56,8.14,35-2.63,49.83-1.36,1.87-4.51,6.89-6.88,5.96-1.32-.52-12.25-7.44-12.83-8.26-.39-.55-.64-.59-.26-1.33.95-1.85,8.49-8.46,10.56-11.03,4.73-5.9,7.16-11.51,7.64-19.17.91-14.41-4.37-24.25-20.26-22.87-12.21,1.06-21.69,13.77-25.39,24.55-3.98,11.61-2.33,25.3-2.76,37.45-.76.12-1.36-.04-2.07-.29-3.02-1.09-7.83-4.38-10.55-6.28v-58.6h12.36Z"/>
      <path class="cls-1" d="M663.44,333.7c-2.05-2.88-3.74-3.1-7.2-2.54-2.18.36-13.02,6.39-12.36,1.28.68-5.19,14.24-.8,15.08-6.95.22-1.65-.28-3.37.3-4.97.76-1.36,1.95,1.74,3.1,1.55,2.55-.42,1.12-4.86-1.6-5.12-.9-.08-6.23,4.15-4.28-2.36,1.06-3.51,10.2,1.12,8.33-3.81l-102.3-.25c-3.97-1.94-6.73-8.52-.41-9.35,2.13-.28,6.07,3.63,5.39.7-1.21-5.19-11.97-4.49-14.33.92-1.24,2.85,1.38,4.03,2.26,6.44l-.81,1.3h-28.92c-1.43-1.16-.55-3.26-.83-4.95-.45-2.73-3.3-11.41-5.45-12.95-1.17-.85-5.79-.98-5.51.76,2,2.88,4.61,6.33,5.51,9.75.31,1.2,1.45,7.39-.56,7.39h-69.15l-.49,1.79.75.84h37.86c.51,0,2.09,2.57.57,3.72-2.29,1.73-9.61.42-11.6,4.7-1.26,2.69,1.51,3.17,1.33,4.95-.16,1.71-3.05,2.37-3.23,4.75-.36,4.93,9.1,7.16,12.93,7.15,2.48,0,9.69-1.18,10.24-4,.2-.97.36-4.81-1.29-4.45-3.46,4.79-13.64,8.35-17.12,2.36-.01-2.73,7.44-3.44,9.5-3.67l.51-1.84c-2.75-1.16-5.88.96-8.17-1.58-2.54-4.85,10.04-4.52,12.4-3.91,1.85-1.35-3.35-5.94-.28-8.18h25.24c.18,0,.8.69,1.32.52v7.62c0,2.52-4.53-2-5.08-2.26-8.62-4.1-17.71,5.44-11.97,13.52,3.95,5.55,11.23,7.94,15.76,1.64.82-.18,3.52,4.55,5.49,3.65-.14-.5.53-1.12.53-1.31v-22.59l.79-.79h15.77c1.72,0,1.81,3.25.82,3.96-2.51,1.8-16.64.39-10.08,9.01.46,1.64-3.58,2.68-3.48,5.59,2.18,6.61,13.06,7.47,18.82,5.9,4.58-1.25,4.98-3,4.7-7.64-2.03-.29-2.79,1.87-4.24,2.85-10.62,7.19-23.14-2.68-5.04-3.99l.64-.41c1.13-3.24-2.91-1.56-4.69-1.64-7.28-.32-3.32-5.83,2.71-6.16,1.78-.09,7.68,2.32,6.85-.79-.46-1.73-2.4-2.67-1.4-5.81l.71-.87h7.88c.75.46.73,1.05.82,1.81.69,5.91-1.05,14.47-.01,19.98.3,1.59,2.34,2.87,3.87,2.94,1.68-1.84.35-4.05.3-6.05-.07-2.8-.4-16.14.29-17.62.12-.25.95-1.06,1.05-1.06h90.19c1.72,4.59-3.58,3.05-6.5,4.81-5.66,3.4-.95,7.93-1.43,9.56-.22.72-1.9,1.16-2.53,2.24-2.9,4.94,5.68,8.49,5.2,9.13-6.44.42-12.49,4.5-13.67,11.04,2.31.38,2.97-2.3,4.25-3.36,3.39-2.82,8.18-5.35,12.72-4.4,3.79.8,11.05,7.08,14.59,2.78,2.31-2.82.57-8.57-1.36-11.27ZM517.75,328.36c-2.23,3.81-8.22,9.16-11.92,4.13-3.18-4.32.8-10.31,5.24-11.33,5.11-1.16,9.83,1.83,6.68,7.2ZM650.97,319.07c8.42-1.75,5.39,7.75-.68,8.79-6.63,1.13-4.93-7.62.68-8.79ZM661.86,342.03c-3.43,3.25-10.3-1.13-13.37-3.38,3.92-.89,11.18-7.83,14.56-3.25,1.31,1.77.31,5.21-1.19,6.63Z"/>
      <path class="cls-1" d="M484.41,181c-.12.4-.78.76-1.28.78-.69.02-11.25-5.31-12.34-6.09-.63-.45-1.27-.83-1.53-1.63.75-6.87-1.53-54.82.36-57.22.5-.64,1.13-.67,1.87-.76,1.47-.19,10.52-.22,11.51.11,1.56.52,1.19,2.7,1.41,3.85.14.72-.39.88.79.81,1.68-.1,3.89-2.15,5.52-2.9,12.38-5.74,26.62-7.74,37.09,2.87,6.41,6.49,6.3,13.13.51,19.99-1.49,1.77-9.02,8.59-10.93,8.33-2.09-.29-9.11-10.48-11.42-12.28,0-.72,5.77-2.31,7-2.98,5.84-3.2,12.43-11.41,3.88-15.78-10.88-5.56-25.49,9.15-29.76,18.3-.79,1.68-2.69,7.26-2.69,8.87v35.74Z"/>
      <path class="cls-1" d="M733.42,310.54c2.57-5.03-1.17-11.94-4.99-15.51-.38-1.72,3.55-1.52,4.72-1.03,1.52.64,4.32,5.59,4.86,7.23,1.05,3.18.22,5.97.9,9.07l7.32-.36c.92-1.47-1.76-9.47,2.67-6.46,2.92,1.98,1.29,4.78,2.92,7.06h87.83c.52,0,1.36,1.64.28,2.38l-6.09.74c-1.86,2.68,2.54,6.51.83,7.68-1.7.5-3.33-.78-5.03-.83-2.56-.07-8.76,1.41-7.55,4.94,1.04,3.01,8.35-.6,8.36,2.17,0,1.91-3.04,1.16-4.34,1.45-2.14.47-7.92,1.99-4.85,5.11,2.46,2.5,10.23.76,13.04-1.13,1.61-1.08,2.47-3.25,4.56-3.06,2.26,8.7-9.69,9.18-15.45,7.82-1.76-.41-7.05-2.81-7.58-4.51-1.34-4.25,2.93-5.11,3.09-6.76.14-1.53-1.44-1.89-1.63-3.15-.85-5.78,9.75-4.82,11.89-6.5,1.51-1.18.29-3.73-.57-3.73h-57.85l-.79.79v17.87c0,1.91,2.5,4.9,4.2,5.78-3.53,1.78-8.94-5.22-8.94-7.89v-15.77l-.79-.79h-12.62c-.52.33-.68.73-.79,1.31-.53,2.9.01,8.8.02,12.11,0,1.12-.56,2.14-.55,3.13.09,9.86,6.08,7.81,5.78-.26,9.13-.19,2.74,8.96-2.89,8.98-9.45.04-7.22-13.24-7.13-19.77.02-1.55,1.22-3.68-.23-4.99-1.3-1.18-5.19,0-7.1-1.04-.81.59-.61,15.76-.55,18.16s1.26,4.58,0,7.06c-.58.4-2.73-.64-3.17-1.26-1.88-2.64.78-19.24-1.01-23.42h-22.35c-.17,0-.8.7-1.31.53v19.18c0,.19,1.47,2.55,1.82,2.92,3.64,3.83,9.48-.51,10.75-4.54s.2-8.69.65-12.75l4.59-.53.36,18.83-1.51.98c-4.76-3.83-5.35-.25-8.62.5-4.94,1.13-10.99-1.87-12.42-6.81-1.23-4.25.74-14.48-.61-17.25-.75-1.55-4.08-1.19-5.56-.82-.79.55-.63,5.13-.38,6.23.44,1.95,2.8,2.46,2.52,4.58-2.94.56-2.57-1.5-3.68-2.89-4.72-5.91-13.63.14-14.99,6.04s3.22,9.05,8.83,7.78c1.91-.43,2.61-2.67,4.88-3.02,4.64-.71,4.02,2.01.93,4.09-10.65,7.17-26.03-7.63-14.91-17.53,1.36-1.21,4.33-2.74,6.12-2.86s4.33,1.65,5.49.81c.99-.72.48-3.46-.29-3.46h-15.78c-.99,0-.99-2.63,0-2.63h54.69Z"/>
      <path class="cls-1" d="M559.35,112.94c.38.11,1.31,1.22,1.27,1.8v64.6c-.34,1.12-1.83.98-2.72.75-.71-.18-9.43-5.1-9.99-5.65-.29-.29-.92-1.02-.92-1.33v-58.86c0-.09,1.22-1.31,1.31-1.31,2.41,0,9.33-.48,11.04,0Z"/>
      <path class="cls-1" d="M536.81,50.99c2.41-.8,14.59,4.69,16.98,6.55,5.12,3.98,5.7,10.87,7.55,16.63.69,2.15,3.57,7.92,3.5,9.63-.06,1.41-1.58,2.01-2.83,1.83-2.27-.32-5.2-9.05-6.68-11.24-.74-1.09-3.34-3.76-4.39-4.54-3.2-2.36-7.68-2.25-10.25-5.52-.75-.96-4.38-9.42-4.63-10.63-.19-.91-.4-2.33.76-2.71Z"/>
      <path class="cls-1" d="M636.74,50.99c2.28-.75,13.37,4.14,15.71,5.71,8.11,5.43,7.66,17.58,12.23,25.62,1.22,3.52-2.29,4.43-4.33,2.22-2.54-2.76-3.8-9.53-7.11-12.87s-9.77-4.26-12.13-6.8c-1.07-1.15-5.46-11.4-5.27-12.61.1-.63.23-1.06.9-1.27Z"/>
      <path class="cls-1" d="M580.65,318.16c2.22-2.6,4.33.89,6,.8,1.25-.07,3.21-1.71,4.91-1.99,6.89-1.12,11.84,4.58,11.72,11.15-.08,4.6-4.3,14.02-8.99,7.39,1.75-2.93,4.69-4.18,5.25-7.92,1.5-9.94-9.19-9.95-13.13-2.61-.35.65-1.56,3.77-1.56,4.22v7.88l-1.22.71-2.99-1.76v-17.87Z"/>
      <path class="cls-1" d="M620.09,337.87c-1.62.16-3.88-1.25-4.19-2.9-.51-2.72-.26-11.62-.04-14.72.07-.97.17-1.92.62-2.79h3.53s.91,2.06.91,2.06c4.9-1.77,7.47-4.24,12.68-1.19,5.51,3.22,6.21,10.44,3.4,15.7-2.09,3.89-3.5,5.14-7.22,1.76,2.46-3.93,8.31-9.16,4.21-14.16-4.81-5.87-13.91,2.23-13.91,8.11v8.15Z"/>
      <path class="cls-1" d="M457.06,336.55c-.06.22-1.08,1.33-1.6,1.09-.67-.46-1.86-.77-2.37-1.32-1.43-1.54-.65-10.14-.74-12.92-.05-1.54-1.21-3.55-.03-4.72,1.71-1.71,4.55-.04,6.53-.26,1.23-.14,2.53-1.26,3.87-1.46,3.42-.5,9.13,1.37,9.13,5.41,0,2.96-4.56,6.95-6.93,3.72-2.54-3.47,5.82-3.54,2.31-7.68-3.36-1.5-10.17,4.18-10.17,7.11,0,2.49.49,9.21,0,11.04Z"/>
      <path class="cls-1" d="M801.71,320.18c-.95.81-3.16,3.84-3.59,5.08-1.39,3.95-.09,6.09-.27,9.71-.23,4.71-1.87,2.42-4.76.97l.51-17.81c1.71-1.19,4.15.68,5.35.58,3.66-.32,5.7-3.84,10.97-.52,6.65,4.19-1.58,13.58-5.21,6.34.26-1.23,5.73-2.98,3.71-5.36-2.05-1.69-4.9-.54-6.7,1.01Z"/>
      <path class="cls-1" d="M108.13,63.02c-3.44,5.1,6.51,2.97,8.87,3.18,4.83.41,3.58,4.8,3.23,8.39-1.44,2.37-13.1,2.04-15.02.29s-.47-4.59,2.13-3.98v2.11s9.94-.06,9.94-.06c2.87-7.12-8.66-2.71-11.52-4.4-1.56-.92-1.63-6.39.25-7.64,1.72-1.15,11.6-.9,13.3-.12.89.41,2.38,2.29,1.2,3.05-1.86,1.19-3.25-.8-3.44-.8h-8.94Z"/>
      <path class="cls-1" d="M218.65,69.32c4.42.72,4.02-8.85,2.01-9.45h-13.67l-.79.78v13.67c6.24,3.11-.31-5.82,6.6-5.03,3.48.41,5.27,7.14,9.7,5.81.49-1.85-5.96-4.6-3.85-5.78ZM209.43,65.84l-.07-3.35,9.41.06c.08,1.21.5,3.65-.81,4.07-1.65-.15-8,.85-8.53-.78Z"/>
      <path class="cls-1" d="M346.88,68.27c-3.03-.65-2.93-5.93-1.1-7.93.92-.7,12.82-.78,13.99-.22,1.46.71,2.1,3.6.2,3.92-.71.12-1.36-1.09-2.19-1.43-.99-.41-8.36-.33-9.24-.05-1.35.44-1.07,2.39-.13,3.12,2.31,1.79,11.23-1.33,12.66,2.06.66,1.56.33,5.52-.91,6.68-1.11,1.04-13.96,1.04-14.99.01s-.89-3.36.65-3.96c1.92,1.15,1.82,1.98,4.36,2.36,3.8.58,10.49.73,7.22-4.59-3.05-.44-7.71.6-10.52,0Z"/>
      <path class="cls-1" d="M255.11,62.49l.31,3.21c2.84,1.38,9.96-.55,12.09.95,1.81,1.28,1.81,6.67,0,7.96-1.14.8-13.93.81-14.77-.03-.79-.78-1.33-3.11.08-3.63,2.13-.78,1.73.98,2.5,1.55,1.69,1.24,3.65.1,5.31.07,1.47-.03,3.45.98,5.03-.43-.11-1.11.46-3.37-.89-3.81-6.59-.41-16.52,2.38-11.54-8,.89-.68,11.6-.77,13.18-.47,2.16.42,3.5,4,.57,3.67-.75-.08-1.44-.91-2.63-1.08-2.76-.39-6.36.34-9.23.03Z"/>
      <path class="cls-1" d="M317.17,74.32c-.13.43-.83.76-1.32.82-2.91.33-10.42-9.31-13.66-10.54l-.79,10.52-3.16-.79v-13.66c0-.33.86-.76,1.32-.82,2.56-.29,10.71,9.17,13.67,10.53,2.23-2.42-.73-7.58,1.05-9.98.79-1.07,2.9-.4,2.9.27v13.66Z"/>
      <path class="cls-1" d="M38.18,63.02c-.91.27-1.19,2.3-.29,2.92,1.37.95,6.19-.75,6.8,1.09l.06,1.77c-3.26.16-8.54-1.3-7.13,3.7.92,1.05,1.85.5,2.66.5h8.41c.9,0,2.3,2.59-.54,3.14-3.86.74-9.42-.44-13.4-.51v-15.24c3.59-.37,9.4-1.16,12.87-.51.85.16,1.44.57,1.78,1.39.4.57-.36,1.75-.71,1.75h-10.52Z"/>
      <path class="cls-1" d="M198.58,59.87h-14.2l-.79.78v13.67c0,.68,2.21,1.31,2.92.29l.31-4.42.79-.79c2.76-.59,10.1,1.04,11.79-1.35.91-1.27.89-8.18-.82-8.18ZM186.84,65.28c-1.31-4.41,7.1-3.18,9.8-2.69l.55,2.68c-.56,2.14-9.69,2.21-10.35,0Z"/>
      <path class="cls-1" d="M245.65,75.11h-14.46c-2.04-1.47-.79-3.05-.9-4.47-.29-3.66-.81-7.12.11-10.77h14.46l.79,1.31c-.06.23-1.67,1.32-1.84,1.32h-9.99c-.99,0-1.67,3.44,1.58,3.72.81.07,5.98-.94,5.52,1.26-.42,2-7.38-.91-7.9,2.67-.59,4.11,3.76,2.2,5.53,2.29,1.09.05,6.62.73,6.87,1.07l.23,1.61Z"/>
      <path class="cls-1" d="M291.66,59.87c.94.23.51,1.87.2,2.05-.21.12-4.2.55-4.91.6-2.34.15-4.78-.16-7.12-.02-.35,5.57,2.75,2.74,5.39,3.24.69.13,2.16.87,1.97,1.74-.36,1.63-5.67.19-6.87,1.03l-.41,3.89c.49.77,9.53.05,11.67.69,1.2.36,1.08,1.37.09,2.01h-14.2l-.79-.79v-13.66l.79-.79h14.2Z"/>
      <path class="cls-1" d="M788.38,337.08c-.7,2.37-4.28-1.28-5.52-1.28-1.7,0-5.08,4.21-6.57,1.55,4.27-.73,6.76-5.4,7.07-9.39.18-2.27-.93-7.06.03-9.02s5-.9,5,.27v17.87Z"/>
      <path class="cls-1" d="M143.1,60.65l.79-.77c.66.3,1.84,1.05,1.84,1.83v10.51c0,1.78,2.71.79,2.89.79h7.63l.6-11.75,2.56-.86v13.93c0,2.4-10.44,2.05-12.31,1.79-1.37-.19-2.98-.81-3.99-1.79v-13.66Z"/>
      <path class="cls-1" d="M3.47,63.02c-1.37.42-.74,3.21.26,3.95,1.19.71,6.23-.56,5.79,1.56-1.28,2.65-4.64.32-5.78,1.02-1.66,1.02-.57,4.49-1.3,5.56-2.23,1.79-2.36-1.02-2.43-2.9l.58-11.82h13.94c.99,0,.99,2.63,0,2.63H3.47Z"/>
      <path class="cls-1" d="M77.89,75.63l-2.55-.07c-1.37-.83.46-10.67-.68-12.46-1.66-.4-6.62.87-6.27-1.91.31-2.45,4.82-.74,6.11-.77,2.46-.07,9.72-2.04,10.54,1,.87,3.27-7.14-.07-7.14,3.45v10.77Z"/>
      <path class="cls-1" d="M572.23,336.29v-18.66c0-.26,1.32-1.37,1.87-1.34.67-.28,2.34.95,2.34,1.34v19.44l-1.24.73-2.97-1.52Z"/>
      <path class="cls-1" d="M611.55,316.97c1.55,2.45.18,5.65.23,8.02.04,1.92,1.51,12.62-.88,12.8-.59-.49-1.98-.78-2.39-1.24-1.02-1.13-.46-12.2-.49-14.74-.03-1.93-1.46-3.97.86-5.44l2.68.6Z"/>
      <path class="cls-1" d="M339.26,59.87l-.23,1.61-.64.41c-1.14.18-6.49-.38-6.49,1.4v11.04l-2.32.82c-1.49-.33-.59-10.75-.84-12.65-.32-.33-9.62.84-6.58-2.62h17.09Z"/>
      <path class="cls-1" d="M401.05,197.83c6.93,0,2.76,11.72-2.57,5.98-2.67-2.88-1.19-5.97,2.57-5.98Z"/>
      <path class="cls-1" d="M577.49,307.91c-2.11-.11-2.28-2.68-3.65-3.97-1.11-1.05-2.55-1.26-3.72-2.59-4.36-4.97,2.92-4.38,5.28-1.07.67.94,2.66,6.97,2.09,7.63Z"/>
      <path class="cls-1" d="M604.32,297.94c5.1-1.08,7.62,3.66,8.5,8.05.17.84.92,1.05-.36,1.92-.93.18-2.24-2.81-3.13-3.7-1.96-1.96-5.18-2.54-5.01-6.28Z"/>
      <path class="cls-1" d="M877.1,333.72c1.9-.49,4.24,3.2,1.36,4.05-3.68,1.09-4.22-3.31-1.36-4.05Z"/>
      <path class="cls-1" d="M870.16,333.84c2.48,0,3.52,4.08,0,4.08s-2.48-4.08,0-4.08Z"/>
      <path class="cls-1" d="M61.45,75.5c-2.85,2.79-5.64-3.64-1.71-3.59,1.98.02,2.95,2.37,1.71,3.59Z"/>
      <path class="cls-1" d="M885,334.28c3.92-1.17,4.48,4.17.45,3.6-2.19-.31-2.53-2.98-.45-3.6Z"/>
      <path class="cls-1" d="M133.55,75.55c-3.41,2.17-5.68-4.29-1.26-3.61,1.99.31,2.3,2.95,1.26,3.61Z"/>
      <path class="cls-1" d="M25.3,75.63l-3.64-.05c-.88-2.52.21-4.43,3.14-3.4l.49,3.45Z"/>
      <path class="cls-1" d="M91.63,72.55c.57-.91,3.79-1.41,3.65,1.77-.15,3.51-5.23.75-3.65-1.77Z"/>
      <path class="cls-1" d="M169.97,72c2.19-1.49,4.79,3.32,1.69,4.1-2.41.6-2.72-3.39-1.69-4.1Z"/>
    </g>
  </g>
</svg>